<?xml version="1.0"?>
<svg xmlns="http://www.w3.org/2000/svg" height="512px" viewBox="-7 -7 512.00022 512" width="512px" class=""><g><path d="m108.71875 62.886719-88.585938 58.40625c-4.636718 3.09375-7.117187 8.554687-6.375 14.089843.742188 5.53125 4.5625 10.152344 9.851563 11.90625l88.585937 29.203126zm0 0" fill="#ff9ac9" data-original="#FF9AC9" class="" style="fill:#50DDC0" data-old_color="##50DDC"/><g fill="#ffb6fa"><path d="m508.542969 5.039062c-3.9375-4.5-11.441407-6.542968-16.9375-3.796874l-205.40625 89.5625c-1.164063.289062-2.042969.875-2.917969 1.75l-23.070312 66.296874 25.988281 127.328126 36.507812 44.976562c19.019531-31.355469-67.933593 111.632812 187.003907-308.59375 3.503906-5.835938 2.886718-12.890625-1.167969-17.523438zm0 0" data-original="#000000" class="" style="fill:#3DAC93" data-old_color="# 3DAC9"/><path d="m511.171875 362.109375c-2.320313-5.800781-7.070313-9.632813-13.726563-9.632813h-171.234374l-24.238282 29.203126 13.140625 79.433593 35.339844 37.382813c3.210937 0 6.421875-1.167969 9.050781-3.210938l146.996094-116.820312c4.570312-3.429688 6.761719-9.386719 4.671875-16.355469zm0 0" data-original="#000000" class="" style="fill:#3DAC93" data-old_color="# 3DAC9"/><path d="m126.457031 63.9375c-4.382812-3.503906-10.515625-4.675781-15.773437-2.339844-5.257813 2.628906-8.46875 7.59375-8.46875 13.4375v233.632813l84.210937-66.613281 43.121094-87.585938zm0 0" data-original="#000000" class="" style="fill:#3DAC93" data-old_color="# 3DAC9"/></g><path d="m283.28125 92.554688c-.875.585937-1.75 1.171874-2.335938 2.046874l-178.730468 214.066407c0 7.449219 3.382812 8.742187 5.839844 11.679687l233.636718 175.226563c2.625 2.042969 5.546875 2.921875 8.761719 2.921875zm0 0" fill="#ffd2fe" data-original="#FFD2FE" class="active-path" style="fill:#4ACDB3" data-old_color="#50DDC0"/></g> </svg>
